<svg height="477.60001pt" viewBox="0 0 477.60001 477.60001" width="477.60001pt" xmlns="http://www.w3.org/2000/svg"><path d="m477.601562 238.800781c0 131.886719-106.914062 238.800781-238.800781 238.800781s-238.800781-106.914062-238.800781-238.800781 106.914062-238.800781 238.800781-238.800781 238.800781 106.914062 238.800781 238.800781zm0 0" fill="#382b73"/><path d="m445.398438 238.800781c0 114.101563-92.496094 206.597657-206.597657 206.597657-114.101562 0-206.597656-92.496094-206.597656-206.597657 0-114.101562 92.496094-206.597656 206.597656-206.597656 114.101563 0 206.597657 92.496094 206.597657 206.597656zm0 0" fill="#473080"/><path d="m392.800781 287.441406c0-29.828125-20.394531-54.890625-48-62v-77.769531c0-7.472656-5.289062-13.710937-12.328125-15.179687-1.464844-7.035157-7.703125-12.324219-15.175781-12.324219h-55.171875l-12.402344-12.402344h-109.421875c-8.5625 0-15.5 6.941406-15.5 15.503906v226.664063c0 7.589844 5.457031 13.90625 12.660157 15.242187 1.144531 6.171875 5.941406 11.058594 12.066406 12.335938 1.464844 7.039062 7.703125 12.328125 15.175781 12.328125h164.59375c8.5625 0 15.5-6.945313 15.5-15.503906v-24.894532c27.609375-7.113281 48.003906-32.175781 48.003906-62zm0 0" fill="#382b73"/><path d="m329.296875 375.835938h-164.589844c-8.5625 0-15.503906-6.941407-15.503906-15.5v-220.464844c0-8.5625 6.941406-15.503906 15.503906-15.503906h164.589844c8.5625 0 15.503906 6.941406 15.503906 15.503906v220.460937c0 8.5625-6.941406 15.503907-15.503906 15.503907zm0 0" fill="#d1d3d4"/><path d="m329.296875 369.632812h-164.589844c-8.5625 0-15.503906-6.9375-15.503906-15.5v-220.460937c0-8.5625 6.941406-15.503906 15.503906-15.503906h164.589844c8.5625 0 15.503906 6.941406 15.503906 15.503906v220.460937c0 8.5625-6.941406 15.5-15.503906 15.5zm0 0" fill="#fff"/><path d="m317.296875 363.835938h-164.589844c-8.5625 0-15.503906-6.941407-15.503906-15.5v-220.464844c0-8.5625 6.941406-15.503906 15.503906-15.503906h164.589844c8.5625 0 15.503906 6.941406 15.503906 15.503906v220.460937c0 8.5625-6.941406 15.503907-15.503906 15.503907zm0 0" fill="#d1d3d4"/><path d="m317.296875 357.632812h-164.589844c-8.5625 0-15.503906-6.9375-15.503906-15.5v-220.460937c0-8.5625 6.941406-15.503906 15.503906-15.503906h164.589844c8.5625 0 15.503906 6.941406 15.503906 15.503906v220.460937c0 8.5625-6.941406 15.5-15.503906 15.5zm0 0" fill="#e6e7e8"/><path d="m255.921875 99.964844h-115.621094c-8.5625 0-15.5 6.941406-15.5 15.503906v220.460938c0 8.5625 6.9375 15.503906 15.5 15.503906h164.59375c8.5625 0 15.5-6.941406 15.5-15.503906v-171.488282zm0 0" fill="#d1d3d4"/><path d="m249.722656 93.765625h-109.421875c-8.5625 0-15.5 6.9375-15.5 15.5v220.460937c0 8.5625 6.9375 15.503907 15.5 15.503907h164.59375c8.5625 0 15.5-6.941407 15.5-15.503907v-165.285156zm0 0" fill="#fff"/><g fill="#d0d2d3"><path d="m289.570312 197.792969h-133.945312c-3.421875 0-6.199219-2.773438-6.199219-6.199219s2.773438-6.203125 6.199219-6.203125h133.945312c3.425782 0 6.203126 2.773437 6.203126 6.203125 0 3.425781-2.777344 6.199219-6.203126 6.199219zm0 0"/><path d="m289.570312 235.414062h-133.945312c-3.421875 0-6.199219-2.777343-6.199219-6.203124 0-3.421876 2.773438-6.199219 6.199219-6.199219h133.945312c3.425782 0 6.203126 2.773437 6.203126 6.199219 0 3.425781-2.777344 6.203124-6.203126 6.203124zm0 0"/><path d="m289.570312 273.035156h-133.945312c-3.421875 0-6.199219-2.777344-6.199219-6.203125s2.773438-6.203125 6.199219-6.203125h133.945312c3.425782 0 6.203126 2.777344 6.203126 6.203125s-2.777344 6.203125-6.203126 6.203125zm0 0"/><path d="m289.570312 310.65625h-133.945312c-3.421875 0-6.199219-2.777344-6.199219-6.203125 0-3.421875 2.773438-6.199219 6.199219-6.199219h133.945312c3.425782 0 6.203126 2.773438 6.203126 6.199219s-2.777344 6.203125-6.203126 6.203125zm0 0"/></g><path d="m320.398438 164.441406h-55.171876c-8.5625 0-15.503906-6.941406-15.503906-15.503906v-55.171875zm0 0" fill="#bbbdbf"/><path d="m343.496094 211.167969c-34.40625-8.125-68.886719 13.183593-77.011719 47.59375-8.125 34.40625 13.179687 68.886719 47.589844 77.011719 34.410156 8.125 68.890625-13.183594 77.015625-47.589844 8.125-34.410156-13.183594-68.890625-47.59375-77.015625zm0 0" fill="#e43d91"/><path d="m340.433594 224.148438c-27.242188-6.433594-54.539063 10.4375-60.972656 37.675781-6.429688 27.242187 10.4375 54.539062 37.679687 60.972656 27.238281 6.429687 54.535156-10.4375 60.96875-37.679687 6.433594-27.238282-10.4375-54.535157-37.675781-60.96875zm0 0" fill="#ef5a9d"/><path d="m304.507812 297.71875c-3.644531-3.644531-3.644531-9.554688 0-13.199219l35.355469-35.359375c3.644531-3.640625 9.554688-3.640625 13.199219 0 3.644531 3.644532 3.644531 9.554688 0 13.203125l-35.355469 35.355469c-3.644531 3.644531-9.554687 3.644531-13.199219 0zm0 0" fill="#fff"/><path d="m353.0625 297.71875c-3.644531 3.644531-9.554688 3.644531-13.199219 0l-35.355469-35.355469c-3.648437-3.644531-3.648437-9.554687 0-13.203125 3.640626-3.640625 9.550782-3.640625 13.199219 0l35.355469 35.359375c3.644531 3.644531 3.644531 9.554688 0 13.199219zm0 0" fill="#fff"/></svg>